<?xml version="1.0" encoding="UTF-8" standalone="no"?>
<!-- Created with Inkscape (http://www.inkscape.org/) -->

<svg
   xmlns:dc="http://purl.org/dc/elements/1.1/"
   xmlns:cc="http://creativecommons.org/ns#"
   xmlns:rdf="http://www.w3.org/1999/02/22-rdf-syntax-ns#"
   xmlns:svg="http://www.w3.org/2000/svg"
   xmlns="http://www.w3.org/2000/svg"
   xmlns:sodipodi="http://sodipodi.sourceforge.net/DTD/sodipodi-0.dtd"
   xmlns:inkscape="http://www.inkscape.org/namespaces/inkscape"
   width="300mm"
   height="200mm"
   viewBox="0 0 300 200"
   version="1.1"
   id="svg147"
   inkscape:version="0.92.1 r15371"
   sodipodi:docname="underground-bg.svg">
  <defs
     id="defs141" />
  <sodipodi:namedview
     id="base"
     pagecolor="#ffffff"
     bordercolor="#666666"
     borderopacity="1.0"
     inkscape:pageopacity="0.0"
     inkscape:pageshadow="2"
     inkscape:zoom="0.7"
     inkscape:cx="434.69896"
     inkscape:cy="515.86666"
     inkscape:document-units="mm"
     inkscape:current-layer="layer1"
     showgrid="false"
     inkscape:window-width="1920"
     inkscape:window-height="1027"
     inkscape:window-x="1272"
     inkscape:window-y="-8"
     inkscape:window-maximized="1"
     showguides="false" />
  <metadata
     id="metadata144">
    <rdf:RDF>
      <cc:Work
         rdf:about="">
        <dc:format>image/svg+xml</dc:format>
        <dc:type
           rdf:resource="http://purl.org/dc/dcmitype/StillImage" />
        <dc:title />
      </cc:Work>
    </rdf:RDF>
  </metadata>
  <g
     inkscape:label="Layer 1"
     inkscape:groupmode="layer"
     id="layer1"
     transform="translate(0,-97)">
    <path
       style="fill:#000000;stroke:#000000;stroke-width:0.27026659px;stroke-linecap:butt;stroke-linejoin:miter;stroke-opacity:1"
       d="M 0,305.28773 -0.37797618,97.050597 H 300.11309 V 305.68212 Z"
       id="path153"
       inkscape:connector-curvature="0" />
    <path
       sodipodi:type="spiral"
       style="fill:none;fill-rule:evenodd;stroke:#000000;stroke-width:0.26458332"
       id="path19"
       sodipodi:cx="22.678572"
       sodipodi:cy="171.5119"
       sodipodi:expansion="1"
       sodipodi:revolution="3"
       sodipodi:radius="13.86199"
       sodipodi:argument="-18.398104"
       sodipodi:t0="0"
       d="m 22.678572,171.5119 c 0.625387,0.30322 -0.100187,0.99261 -0.503968,1.03944 -1.094219,0.1269 -1.70902,-1.11775 -1.574902,-2.04737 0.239905,-1.66287 2.075823,-2.48488 3.590772,-2.11037 2.223248,0.5496 3.277617,3.04468 2.645838,5.13417 -0.842063,2.78496 -4.017086,4.07719 -6.677577,3.18131 -3.347956,-1.12738 -4.880217,-4.99111 -3.716773,-8.22098 1.409086,-3.91181 5.96602,-5.68524 9.764381,-4.25224 4.476237,1.68873 6.491498,6.94149 4.787708,11.30778 -1.967092,5.04106 -7.917336,7.29859 -12.851185,5.32318 -5.606153,-2.2446 -8.10627,-8.89345 -5.858644,-14.39459 2.521497,-6.17146 9.869739,-8.91437 15.93799,-6.39411 6.736909,2.79796 9.722789,10.84618 6.929579,17.48139" />
    <path
       sodipodi:type="star"
       id="path3688-11"
       sodipodi:sides="3"
       sodipodi:cx="38.754082"
       sodipodi:cy="231.25168"
       sodipodi:r1="63.256546"
       sodipodi:r2="31.628273"
       sodipodi:arg1="0.53172407"
       sodipodi:arg2="1.5789216"
       inkscape:flatsided="false"
       inkscape:rounded="0"
       inkscape:randomized="0"
       d="m 93.277063,263.32402 -54.779967,-0.44511 -54.779968,-0.44512 27.775463,-47.21828 27.775463,-47.21829 27.004504,47.6634 z"
       inkscape:transform-center-x="-0.11210653"
       inkscape:transform-center-y="8.4887043"
       style="fill:#b3b3b3;stroke-width:0.26458332"
       transform="matrix(-0.43623652,0,0,-0.54445948,24.411347,261.11436)" />
    <path
       sodipodi:type="star"
       id="path3688-11-6"
       sodipodi:sides="3"
       sodipodi:cx="38.754082"
       sodipodi:cy="231.25168"
       sodipodi:r1="63.256546"
       sodipodi:r2="31.628273"
       sodipodi:arg1="0.53172407"
       sodipodi:arg2="1.5789216"
       inkscape:flatsided="false"
       inkscape:rounded="0"
       inkscape:randomized="0"
       d="m 93.277063,263.32402 -54.779967,-0.44511 -54.779968,-0.44512 27.775463,-47.21828 27.775463,-47.21829 27.004504,47.6634 z"
       inkscape:transform-center-x="-0.17151227"
       inkscape:transform-center-y="15.597936"
       style="fill:#666666;stroke-width:0.26458332"
       transform="matrix(-0.66738313,0,0,-1.000441,66.507002,354.07871)" />
    <path
       transform="matrix(-0.96062879,0,0,-1.1828336,318.94197,355.28184)"
       style="fill:#cccccc;stroke-width:0.26458332"
       inkscape:transform-center-y="18.441631"
       inkscape:transform-center-x="-0.2468665"
       d="m 93.277063,263.32402 -54.779967,-0.44511 -54.779968,-0.44512 27.775463,-47.21828 27.775463,-47.21829 27.004504,47.6634 z"
       inkscape:randomized="0"
       inkscape:rounded="0"
       inkscape:flatsided="false"
       sodipodi:arg2="1.5789216"
       sodipodi:arg1="0.53172407"
       sodipodi:r2="31.628273"
       sodipodi:r1="63.256546"
       sodipodi:cy="231.25168"
       sodipodi:cx="38.754082"
       sodipodi:sides="3"
       id="path3711"
       sodipodi:type="star" />
    <path
       transform="matrix(-0.96062879,0,0,-1.1828336,318.97538,355.61593)"
       style="fill:#cccccc;stroke-width:0.26458332"
       inkscape:transform-center-y="18.441631"
       inkscape:transform-center-x="-0.2468665"
       d="m 93.277063,263.32402 -54.779967,-0.44511 -54.779968,-0.44512 27.775463,-47.21828 27.775463,-47.21829 27.004504,47.6634 z"
       inkscape:randomized="0"
       inkscape:rounded="0"
       inkscape:flatsided="false"
       sodipodi:arg2="1.5789216"
       sodipodi:arg1="0.53172407"
       sodipodi:r2="31.628273"
       sodipodi:r1="63.256546"
       sodipodi:cy="231.25168"
       sodipodi:cx="38.754082"
       sodipodi:sides="3"
       id="path3713"
       sodipodi:type="star" />
    <path
       transform="matrix(-0.96062879,0,0,-1.1828336,319.14242,356.11706)"
       style="fill:#cccccc;stroke-width:0.26458332"
       inkscape:transform-center-y="18.441631"
       inkscape:transform-center-x="-0.2468665"
       d="m 93.277063,263.32402 -54.779967,-0.44511 -54.779968,-0.44512 27.775463,-47.21828 27.775463,-47.21829 27.004504,47.6634 z"
       inkscape:randomized="0"
       inkscape:rounded="0"
       inkscape:flatsided="false"
       sodipodi:arg2="1.5789216"
       sodipodi:arg1="0.53172407"
       sodipodi:r2="31.628273"
       sodipodi:r1="63.256546"
       sodipodi:cy="231.25168"
       sodipodi:cx="38.754082"
       sodipodi:sides="3"
       id="path3715"
       sodipodi:type="star" />
    <path
       transform="matrix(-0.96062879,0,0,-1.1828336,319.27606,356.55138)"
       style="fill:#cccccc;stroke-width:0.26458332"
       inkscape:transform-center-y="18.441631"
       inkscape:transform-center-x="-0.2468665"
       d="m 93.277063,263.32402 -54.779967,-0.44511 -54.779968,-0.44512 27.775463,-47.21828 27.775463,-47.21829 27.004504,47.6634 z"
       inkscape:randomized="0"
       inkscape:rounded="0"
       inkscape:flatsided="false"
       sodipodi:arg2="1.5789216"
       sodipodi:arg1="0.53172407"
       sodipodi:r2="31.628273"
       sodipodi:r1="63.256546"
       sodipodi:cy="231.25168"
       sodipodi:cx="38.754082"
       sodipodi:sides="3"
       id="path3717"
       sodipodi:type="star" />
    <path
       transform="matrix(-0.96062879,0,0,-1.1828336,319.37628,357.11932)"
       style="fill:#cccccc;stroke-width:0.26458332"
       inkscape:transform-center-y="18.441631"
       inkscape:transform-center-x="-0.2468665"
       d="m 93.277063,263.32402 -54.779967,-0.44511 -54.779968,-0.44512 27.775463,-47.21828 27.775463,-47.21829 27.004504,47.6634 z"
       inkscape:randomized="0"
       inkscape:rounded="0"
       inkscape:flatsided="false"
       sodipodi:arg2="1.5789216"
       sodipodi:arg1="0.53172407"
       sodipodi:r2="31.628273"
       sodipodi:r1="63.256546"
       sodipodi:cy="231.25168"
       sodipodi:cx="38.754082"
       sodipodi:sides="3"
       id="path3719"
       sodipodi:type="star" />
    <path
       transform="matrix(-0.96062879,0,0,-1.1828336,319.54333,357.48682)"
       style="fill:#cccccc;stroke-width:0.26458332"
       inkscape:transform-center-y="18.441631"
       inkscape:transform-center-x="-0.2468665"
       d="m 93.277063,263.32402 -54.779967,-0.44511 -54.779968,-0.44512 27.775463,-47.21828 27.775463,-47.21829 27.004504,47.6634 z"
       inkscape:randomized="0"
       inkscape:rounded="0"
       inkscape:flatsided="false"
       sodipodi:arg2="1.5789216"
       sodipodi:arg1="0.53172407"
       sodipodi:r2="31.628273"
       sodipodi:r1="63.256546"
       sodipodi:cy="231.25168"
       sodipodi:cx="38.754082"
       sodipodi:sides="3"
       id="path3721"
       sodipodi:type="star" />
    <path
       transform="matrix(-0.96062879,0,0,-1.1828336,319.61014,357.68727)"
       style="fill:#cccccc;stroke-width:0.26458332"
       inkscape:transform-center-y="18.441631"
       inkscape:transform-center-x="-0.2468665"
       d="m 93.277063,263.32402 -54.779967,-0.44511 -54.779968,-0.44512 27.775463,-47.21828 27.775463,-47.21829 27.004504,47.6634 z"
       inkscape:randomized="0"
       inkscape:rounded="0"
       inkscape:flatsided="false"
       sodipodi:arg2="1.5789216"
       sodipodi:arg1="0.53172407"
       sodipodi:r2="31.628273"
       sodipodi:r1="63.256546"
       sodipodi:cy="231.25168"
       sodipodi:cx="38.754082"
       sodipodi:sides="3"
       id="path3723"
       sodipodi:type="star" />
    <path
       transform="matrix(-0.96062879,0,0,-1.1828336,319.64355,357.75409)"
       style="fill:#cccccc;stroke-width:0.26458332"
       inkscape:transform-center-y="18.441631"
       inkscape:transform-center-x="-0.2468665"
       d="m 93.277063,263.32402 -54.779967,-0.44511 -54.779968,-0.44512 27.775463,-47.21828 27.775463,-47.21829 27.004504,47.6634 z"
       inkscape:randomized="0"
       inkscape:rounded="0"
       inkscape:flatsided="false"
       sodipodi:arg2="1.5789216"
       sodipodi:arg1="0.53172407"
       sodipodi:r2="31.628273"
       sodipodi:r1="63.256546"
       sodipodi:cy="231.25168"
       sodipodi:cx="38.754082"
       sodipodi:sides="3"
       id="path3725"
       sodipodi:type="star" />
    <path
       transform="matrix(-0.96062879,0,0,-1.1828336,319.64355,357.75409)"
       style="fill:#cccccc;stroke-width:0.26458332"
       inkscape:transform-center-y="18.441631"
       inkscape:transform-center-x="-0.2468665"
       d="m 93.277063,263.32402 -54.779967,-0.44511 -54.779968,-0.44512 27.775463,-47.21828 27.775463,-47.21829 27.004504,47.6634 z"
       inkscape:randomized="0"
       inkscape:rounded="0"
       inkscape:flatsided="false"
       sodipodi:arg2="1.5789216"
       sodipodi:arg1="0.53172407"
       sodipodi:r2="31.628273"
       sodipodi:r1="63.256546"
       sodipodi:cy="231.25168"
       sodipodi:cx="38.754082"
       sodipodi:sides="3"
       id="path3727"
       sodipodi:type="star" />
    <path
       transform="matrix(-0.96062879,0,0,-1.1828336,319.64355,357.75409)"
       style="fill:#cccccc;stroke-width:0.26458332"
       inkscape:transform-center-y="18.441631"
       inkscape:transform-center-x="-0.2468665"
       d="m 93.277063,263.32402 -54.779967,-0.44511 -54.779968,-0.44512 27.775463,-47.21828 27.775463,-47.21829 27.004504,47.6634 z"
       inkscape:randomized="0"
       inkscape:rounded="0"
       inkscape:flatsided="false"
       sodipodi:arg2="1.5789216"
       sodipodi:arg1="0.53172407"
       sodipodi:r2="31.628273"
       sodipodi:r1="63.256546"
       sodipodi:cy="231.25168"
       sodipodi:cx="38.754082"
       sodipodi:sides="3"
       id="path3729"
       sodipodi:type="star" />
    <path
       transform="matrix(-0.96062879,0,0,-1.1828336,319.64355,357.75409)"
       style="fill:#cccccc;stroke-width:0.26458332"
       inkscape:transform-center-y="18.441631"
       inkscape:transform-center-x="-0.2468665"
       d="m 93.277063,263.32402 -54.779967,-0.44511 -54.779968,-0.44512 27.775463,-47.21828 27.775463,-47.21829 27.004504,47.6634 z"
       inkscape:randomized="0"
       inkscape:rounded="0"
       inkscape:flatsided="false"
       sodipodi:arg2="1.5789216"
       sodipodi:arg1="0.53172407"
       sodipodi:r2="31.628273"
       sodipodi:r1="63.256546"
       sodipodi:cy="231.25168"
       sodipodi:cx="38.754082"
       sodipodi:sides="3"
       id="path3731"
       sodipodi:type="star" />
    <path
       transform="matrix(-0.96062879,0,0,-1.1828336,319.64355,357.75409)"
       style="fill:#cccccc;stroke-width:0.26458332"
       inkscape:transform-center-y="18.441631"
       inkscape:transform-center-x="-0.2468665"
       d="m 93.277063,263.32402 -54.779967,-0.44511 -54.779968,-0.44512 27.775463,-47.21828 27.775463,-47.21829 27.004504,47.6634 z"
       inkscape:randomized="0"
       inkscape:rounded="0"
       inkscape:flatsided="false"
       sodipodi:arg2="1.5789216"
       sodipodi:arg1="0.53172407"
       sodipodi:r2="31.628273"
       sodipodi:r1="63.256546"
       sodipodi:cy="231.25168"
       sodipodi:cx="38.754082"
       sodipodi:sides="3"
       id="path3733"
       sodipodi:type="star" />
    <path
       transform="matrix(-0.96062879,0,0,-1.1828336,319.64355,357.75409)"
       style="fill:#cccccc;stroke-width:0.26458332"
       inkscape:transform-center-y="18.441631"
       inkscape:transform-center-x="-0.2468665"
       d="m 93.277063,263.32402 -54.779967,-0.44511 -54.779968,-0.44512 27.775463,-47.21828 27.775463,-47.21829 27.004504,47.6634 z"
       inkscape:randomized="0"
       inkscape:rounded="0"
       inkscape:flatsided="false"
       sodipodi:arg2="1.5789216"
       sodipodi:arg1="0.53172407"
       sodipodi:r2="31.628273"
       sodipodi:r1="63.256546"
       sodipodi:cy="231.25168"
       sodipodi:cx="38.754082"
       sodipodi:sides="3"
       id="path3735"
       sodipodi:type="star" />
    <path
       transform="matrix(-0.96062879,0,0,-1.1828336,319.64355,357.75409)"
       style="fill:#cccccc;stroke-width:0.26458332"
       inkscape:transform-center-y="18.441631"
       inkscape:transform-center-x="-0.2468665"
       d="m 93.277063,263.32402 -54.779967,-0.44511 -54.779968,-0.44512 27.775463,-47.21828 27.775463,-47.21829 27.004504,47.6634 z"
       inkscape:randomized="0"
       inkscape:rounded="0"
       inkscape:flatsided="false"
       sodipodi:arg2="1.5789216"
       sodipodi:arg1="0.53172407"
       sodipodi:r2="31.628273"
       sodipodi:r1="63.256546"
       sodipodi:cy="231.25168"
       sodipodi:cx="38.754082"
       sodipodi:sides="3"
       id="path3737"
       sodipodi:type="star" />
    <path
       sodipodi:type="star"
       id="path3688-11-9"
       sodipodi:sides="3"
       sodipodi:cx="38.754082"
       sodipodi:cy="231.25168"
       sodipodi:r1="63.256546"
       sodipodi:r2="31.628273"
       sodipodi:arg1="0.53172407"
       sodipodi:arg2="1.5789216"
       inkscape:flatsided="false"
       inkscape:rounded="0"
       inkscape:randomized="0"
       d="m 93.277063,263.32402 -54.779967,-0.44511 -54.779968,-0.44512 27.775463,-47.21828 27.775463,-47.21829 27.004504,47.6634 z"
       inkscape:transform-center-x="-0.2468665"
       inkscape:transform-center-y="18.441631"
       style="fill:#cccccc;stroke-width:0.26458332"
       transform="matrix(-0.96062879,0,0,-1.1828336,330.65923,403.90714)" />
    <path
       sodipodi:type="star"
       id="path3688-11-2"
       sodipodi:sides="3"
       sodipodi:cx="38.754082"
       sodipodi:cy="231.25168"
       sodipodi:r1="63.256546"
       sodipodi:r2="31.628273"
       sodipodi:arg1="0.53172407"
       sodipodi:arg2="1.5789216"
       inkscape:flatsided="false"
       inkscape:rounded="0"
       inkscape:randomized="0"
       d="m 93.277063,263.32402 -54.779967,-0.44511 -54.779968,-0.44512 27.775463,-47.21828 27.775463,-47.21829 27.004504,47.6634 z"
       inkscape:transform-center-x="-0.13870168"
       inkscape:transform-center-y="12.259685"
       style="fill:#808080;stroke-width:0.26458332"
       transform="matrix(-0.53973501,0,0,-0.78632794,264.56319,315.37266)" />
    <path
       sodipodi:type="star"
       id="path3688-11-26"
       sodipodi:sides="3"
       sodipodi:cx="38.754082"
       sodipodi:cy="231.25168"
       sodipodi:r1="63.256546"
       sodipodi:r2="31.628273"
       sodipodi:arg1="0.53172407"
       sodipodi:arg2="1.5789216"
       inkscape:flatsided="false"
       inkscape:rounded="0"
       inkscape:randomized="0"
       d="m 93.277063,263.32402 -54.779967,-0.44511 -54.779968,-0.44512 27.775463,-47.21828 27.775463,-47.21829 27.004504,47.6634 z"
       inkscape:transform-center-x="-0.17682284"
       inkscape:transform-center-y="13.434267"
       style="fill:#1a1a1a;stroke-width:0.26458332"
       transform="matrix(-0.68808284,0,0,-0.86166402,154.04646,328.02894)" />
    <path
       sodipodi:type="star"
       id="path3688-11-7"
       sodipodi:sides="3"
       sodipodi:cx="38.754082"
       sodipodi:cy="231.25168"
       sodipodi:r1="63.256546"
       sodipodi:r2="31.628273"
       sodipodi:arg1="0.53172407"
       sodipodi:arg2="1.5789216"
       inkscape:flatsided="false"
       inkscape:rounded="0"
       inkscape:randomized="0"
       d="m 93.277063,263.32402 -54.779967,-0.44511 -54.779968,-0.44512 27.775463,-47.21828 27.775463,-47.21829 27.004504,47.6634 z"
       inkscape:transform-center-x="-0.19987729"
       inkscape:transform-center-y="17.019789"
       style="fill:#b3b3b3;stroke-width:0.26458332"
       transform="matrix(-0.77778149,0,0,-1.0916373,219.48771,378.75903)" />
    <path
       sodipodi:type="star"
       id="path3688-11-1"
       sodipodi:sides="3"
       sodipodi:cx="38.754082"
       sodipodi:cy="231.25168"
       sodipodi:r1="63.256546"
       sodipodi:r2="31.628273"
       sodipodi:arg1="0.53172407"
       sodipodi:arg2="1.5789216"
       inkscape:flatsided="false"
       inkscape:rounded="0"
       inkscape:randomized="0"
       d="m 93.277063,263.32402 -54.779967,-0.44511 -54.779968,-0.44512 27.775463,-47.21828 27.775463,-47.21829 27.004504,47.6634 z"
       inkscape:transform-center-x="-0.24598118"
       inkscape:transform-center-y="11.456033"
       style="fill:#4d4d4d;stroke-width:0.26458332"
       transform="matrix(-0.95717884,0,0,-0.7347822,120.93862,297.6417)" />
    <path
       sodipodi:type="star"
       id="path3688-11-8"
       sodipodi:sides="3"
       sodipodi:cx="38.754082"
       sodipodi:cy="231.25168"
       sodipodi:r1="63.256546"
       sodipodi:r2="31.628273"
       sodipodi:arg1="0.53172407"
       sodipodi:arg2="1.5789216"
       inkscape:flatsided="false"
       inkscape:rounded="0"
       inkscape:randomized="0"
       d="m 93.277063,263.32402 -54.779967,-0.44511 -54.779968,-0.44512 27.775463,-47.21828 27.775463,-47.21829 27.004504,47.6634 z"
       inkscape:transform-center-x="-0.081963059"
       inkscape:transform-center-y="5.0268124"
       style="fill:#cccccc;stroke-width:0.26458332"
       transform="matrix(-0.31893827,0,0,-0.32241627,167.61673,204.55286)" />
    <path
       sodipodi:type="star"
       id="path3688-11-4"
       sodipodi:sides="3"
       sodipodi:cx="38.754082"
       sodipodi:cy="231.25168"
       sodipodi:r1="63.256546"
       sodipodi:r2="31.628273"
       sodipodi:arg1="0.53172407"
       sodipodi:arg2="1.5789216"
       inkscape:flatsided="false"
       inkscape:rounded="0"
       inkscape:randomized="0"
       d="m 93.277063,263.32402 -54.779967,-0.44511 -54.779968,-0.44512 27.775463,-47.21828 27.775463,-47.21829 27.004504,47.6634 z"
       inkscape:transform-center-x="-0.12097659"
       inkscape:transform-center-y="6.8813988"
       style="fill:#1a1a1a;stroke-width:0.26458332"
       transform="matrix(-0.47073603,0,0,-0.44136798,231.29982,231.34829)" />
    <rect
       style="fill:#b3b3b3;stroke:none;stroke-width:0.23752201"
       id="rect168"
       width="275.54465"
       height="40.065472"
       x="-19.276785"
       y="91.002983"
       ry="5.6843419e-014" />
    <rect
       style="fill:#999999;stroke:none;stroke-width:0.26458332"
       id="rect170"
       width="80.508919"
       height="40.443443"
       x="256.26785"
       y="90.625008"
       ry="5.6843348e-014" />
    <path
       sodipodi:type="star"
       id="path3688-11-63"
       sodipodi:sides="3"
       sodipodi:cx="38.754082"
       sodipodi:cy="231.25168"
       sodipodi:r1="63.256546"
       sodipodi:r2="31.628273"
       sodipodi:arg1="0.53172407"
       sodipodi:arg2="1.5789216"
       inkscape:flatsided="false"
       inkscape:rounded="0"
       inkscape:randomized="0"
       d="m 93.277063,263.32402 -54.779967,-0.44511 -54.779968,-0.44512 27.775463,-47.21828 27.775463,-47.21829 27.004504,47.6634 z"
       inkscape:transform-center-x="-0.11210653"
       inkscape:transform-center-y="-8.4887047"
       style="fill:#b3b3b3;stroke-width:0.26458332"
       transform="matrix(-0.43623651,0,0,0.54445948,31.117189,177.14526)" />
    <path
       sodipodi:type="star"
       id="path3688-11-6-7"
       sodipodi:sides="3"
       sodipodi:cx="38.754082"
       sodipodi:cy="231.25168"
       sodipodi:r1="63.256546"
       sodipodi:r2="31.628273"
       sodipodi:arg1="0.53172407"
       sodipodi:arg2="1.5789216"
       inkscape:flatsided="false"
       inkscape:rounded="0"
       inkscape:randomized="0"
       d="m 93.277063,263.32402 -54.779967,-0.44511 -54.779968,-0.44512 27.775463,-47.21828 27.775463,-47.21829 27.004504,47.6634 z"
       inkscape:transform-center-x="-0.17151227"
       inkscape:transform-center-y="-15.597936"
       style="fill:#666666;stroke-width:0.26458332"
       transform="matrix(-0.66738312,0,0,1.000441,66.787251,75.865441)" />
    <path
       transform="matrix(-0.96062879,0,0,1.1828336,324.51389,50.09386)"
       style="fill:#cccccc;stroke-width:0.26458332"
       inkscape:transform-center-y="-18.441631"
       inkscape:transform-center-x="-0.2468665"
       d="m 93.277063,263.32402 -54.779967,-0.44511 -54.779968,-0.44512 27.775463,-47.21828 27.775463,-47.21829 27.004504,47.6634 z"
       inkscape:randomized="0"
       inkscape:rounded="0"
       inkscape:flatsided="false"
       sodipodi:arg2="1.5789216"
       sodipodi:arg1="0.53172407"
       sodipodi:r2="31.628273"
       sodipodi:r1="63.256546"
       sodipodi:cy="231.25168"
       sodipodi:cx="38.754082"
       sodipodi:sides="3"
       id="path3711-7"
       sodipodi:type="star" />
    <path
       transform="matrix(-0.96062879,0,0,1.1828336,324.54728,49.75977)"
       style="fill:#cccccc;stroke-width:0.26458332"
       inkscape:transform-center-y="-18.441631"
       inkscape:transform-center-x="-0.2468665"
       d="m 93.277063,263.32402 -54.779967,-0.44511 -54.779968,-0.44512 27.775463,-47.21828 27.775463,-47.21829 27.004504,47.6634 z"
       inkscape:randomized="0"
       inkscape:rounded="0"
       inkscape:flatsided="false"
       sodipodi:arg2="1.5789216"
       sodipodi:arg1="0.53172407"
       sodipodi:r2="31.628273"
       sodipodi:r1="63.256546"
       sodipodi:cy="231.25168"
       sodipodi:cx="38.754082"
       sodipodi:sides="3"
       id="path3713-9"
       sodipodi:type="star" />
    <path
       transform="matrix(-0.96062879,0,0,1.1828336,324.71434,49.25862)"
       style="fill:#cccccc;stroke-width:0.26458332"
       inkscape:transform-center-y="-18.441631"
       inkscape:transform-center-x="-0.2468665"
       d="m 93.277063,263.32402 -54.779967,-0.44511 -54.779968,-0.44512 27.775463,-47.21828 27.775463,-47.21829 27.004504,47.6634 z"
       inkscape:randomized="0"
       inkscape:rounded="0"
       inkscape:flatsided="false"
       sodipodi:arg2="1.5789216"
       sodipodi:arg1="0.53172407"
       sodipodi:r2="31.628273"
       sodipodi:r1="63.256546"
       sodipodi:cy="231.25168"
       sodipodi:cx="38.754082"
       sodipodi:sides="3"
       id="path3715-2"
       sodipodi:type="star" />
    <path
       transform="matrix(-0.96062879,0,0,1.1828336,324.84798,48.82431)"
       style="fill:#cccccc;stroke-width:0.26458332"
       inkscape:transform-center-y="-18.441631"
       inkscape:transform-center-x="-0.2468665"
       d="m 93.277063,263.32402 -54.779967,-0.44511 -54.779968,-0.44512 27.775463,-47.21828 27.775463,-47.21829 27.004504,47.6634 z"
       inkscape:randomized="0"
       inkscape:rounded="0"
       inkscape:flatsided="false"
       sodipodi:arg2="1.5789216"
       sodipodi:arg1="0.53172407"
       sodipodi:r2="31.628273"
       sodipodi:r1="63.256546"
       sodipodi:cy="231.25168"
       sodipodi:cx="38.754082"
       sodipodi:sides="3"
       id="path3717-6"
       sodipodi:type="star" />
    <path
       transform="matrix(-0.96062879,0,0,1.1828336,324.9482,48.25638)"
       style="fill:#cccccc;stroke-width:0.26458332"
       inkscape:transform-center-y="-18.441631"
       inkscape:transform-center-x="-0.2468665"
       d="m 93.277063,263.32402 -54.779967,-0.44511 -54.779968,-0.44512 27.775463,-47.21828 27.775463,-47.21829 27.004504,47.6634 z"
       inkscape:randomized="0"
       inkscape:rounded="0"
       inkscape:flatsided="false"
       sodipodi:arg2="1.5789216"
       sodipodi:arg1="0.53172407"
       sodipodi:r2="31.628273"
       sodipodi:r1="63.256546"
       sodipodi:cy="231.25168"
       sodipodi:cx="38.754082"
       sodipodi:sides="3"
       id="path3719-8"
       sodipodi:type="star" />
    <path
       transform="matrix(-0.96062879,0,0,1.1828336,325.11523,47.88888)"
       style="fill:#cccccc;stroke-width:0.26458332"
       inkscape:transform-center-y="-18.441631"
       inkscape:transform-center-x="-0.2468665"
       d="m 93.277063,263.32402 -54.779967,-0.44511 -54.779968,-0.44512 27.775463,-47.21828 27.775463,-47.21829 27.004504,47.6634 z"
       inkscape:randomized="0"
       inkscape:rounded="0"
       inkscape:flatsided="false"
       sodipodi:arg2="1.5789216"
       sodipodi:arg1="0.53172407"
       sodipodi:r2="31.628273"
       sodipodi:r1="63.256546"
       sodipodi:cy="231.25168"
       sodipodi:cx="38.754082"
       sodipodi:sides="3"
       id="path3721-4"
       sodipodi:type="star" />
    <path
       transform="matrix(-0.96062879,0,0,1.1828336,325.18204,47.68843)"
       style="fill:#cccccc;stroke-width:0.26458332"
       inkscape:transform-center-y="-18.441631"
       inkscape:transform-center-x="-0.2468665"
       d="m 93.277063,263.32402 -54.779967,-0.44511 -54.779968,-0.44512 27.775463,-47.21828 27.775463,-47.21829 27.004504,47.6634 z"
       inkscape:randomized="0"
       inkscape:rounded="0"
       inkscape:flatsided="false"
       sodipodi:arg2="1.5789216"
       sodipodi:arg1="0.53172407"
       sodipodi:r2="31.628273"
       sodipodi:r1="63.256546"
       sodipodi:cy="231.25168"
       sodipodi:cx="38.754082"
       sodipodi:sides="3"
       id="path3723-7"
       sodipodi:type="star" />
    <path
       transform="matrix(-0.96062879,0,0,1.1828336,325.21546,47.62159)"
       style="fill:#cccccc;stroke-width:0.26458332"
       inkscape:transform-center-y="-18.441631"
       inkscape:transform-center-x="-0.2468665"
       d="m 93.277063,263.32402 -54.779967,-0.44511 -54.779968,-0.44512 27.775463,-47.21828 27.775463,-47.21829 27.004504,47.6634 z"
       inkscape:randomized="0"
       inkscape:rounded="0"
       inkscape:flatsided="false"
       sodipodi:arg2="1.5789216"
       sodipodi:arg1="0.53172407"
       sodipodi:r2="31.628273"
       sodipodi:r1="63.256546"
       sodipodi:cy="231.25168"
       sodipodi:cx="38.754082"
       sodipodi:sides="3"
       id="path3725-6"
       sodipodi:type="star" />
    <path
       transform="matrix(-0.96062879,0,0,1.1828336,325.21546,47.62159)"
       style="fill:#cccccc;stroke-width:0.26458332"
       inkscape:transform-center-y="-18.441631"
       inkscape:transform-center-x="-0.2468665"
       d="m 93.277063,263.32402 -54.779967,-0.44511 -54.779968,-0.44512 27.775463,-47.21828 27.775463,-47.21829 27.004504,47.6634 z"
       inkscape:randomized="0"
       inkscape:rounded="0"
       inkscape:flatsided="false"
       sodipodi:arg2="1.5789216"
       sodipodi:arg1="0.53172407"
       sodipodi:r2="31.628273"
       sodipodi:r1="63.256546"
       sodipodi:cy="231.25168"
       sodipodi:cx="38.754082"
       sodipodi:sides="3"
       id="path3727-0"
       sodipodi:type="star" />
    <path
       transform="matrix(-0.96062879,0,0,1.1828336,325.21546,47.62159)"
       style="fill:#cccccc;stroke-width:0.26458332"
       inkscape:transform-center-y="-18.441631"
       inkscape:transform-center-x="-0.2468665"
       d="m 93.277063,263.32402 -54.779967,-0.44511 -54.779968,-0.44512 27.775463,-47.21828 27.775463,-47.21829 27.004504,47.6634 z"
       inkscape:randomized="0"
       inkscape:rounded="0"
       inkscape:flatsided="false"
       sodipodi:arg2="1.5789216"
       sodipodi:arg1="0.53172407"
       sodipodi:r2="31.628273"
       sodipodi:r1="63.256546"
       sodipodi:cy="231.25168"
       sodipodi:cx="38.754082"
       sodipodi:sides="3"
       id="path3729-2"
       sodipodi:type="star" />
    <path
       transform="matrix(-0.96062879,0,0,1.1828336,325.21546,47.62159)"
       style="fill:#cccccc;stroke-width:0.26458332"
       inkscape:transform-center-y="-18.441631"
       inkscape:transform-center-x="-0.2468665"
       d="m 93.277063,263.32402 -54.779967,-0.44511 -54.779968,-0.44512 27.775463,-47.21828 27.775463,-47.21829 27.004504,47.6634 z"
       inkscape:randomized="0"
       inkscape:rounded="0"
       inkscape:flatsided="false"
       sodipodi:arg2="1.5789216"
       sodipodi:arg1="0.53172407"
       sodipodi:r2="31.628273"
       sodipodi:r1="63.256546"
       sodipodi:cy="231.25168"
       sodipodi:cx="38.754082"
       sodipodi:sides="3"
       id="path3731-5"
       sodipodi:type="star" />
    <path
       transform="matrix(-0.96062879,0,0,1.1828336,325.21546,47.62159)"
       style="fill:#cccccc;stroke-width:0.26458332"
       inkscape:transform-center-y="-18.441631"
       inkscape:transform-center-x="-0.2468665"
       d="m 93.277063,263.32402 -54.779967,-0.44511 -54.779968,-0.44512 27.775463,-47.21828 27.775463,-47.21829 27.004504,47.6634 z"
       inkscape:randomized="0"
       inkscape:rounded="0"
       inkscape:flatsided="false"
       sodipodi:arg2="1.5789216"
       sodipodi:arg1="0.53172407"
       sodipodi:r2="31.628273"
       sodipodi:r1="63.256546"
       sodipodi:cy="231.25168"
       sodipodi:cx="38.754082"
       sodipodi:sides="3"
       id="path3733-7"
       sodipodi:type="star" />
    <path
       transform="matrix(-0.96062879,0,0,1.1828336,325.21546,47.62159)"
       style="fill:#cccccc;stroke-width:0.26458332"
       inkscape:transform-center-y="-18.441631"
       inkscape:transform-center-x="-0.2468665"
       d="m 93.277063,263.32402 -54.779967,-0.44511 -54.779968,-0.44512 27.775463,-47.21828 27.775463,-47.21829 27.004504,47.6634 z"
       inkscape:randomized="0"
       inkscape:rounded="0"
       inkscape:flatsided="false"
       sodipodi:arg2="1.5789216"
       sodipodi:arg1="0.53172407"
       sodipodi:r2="31.628273"
       sodipodi:r1="63.256546"
       sodipodi:cy="231.25168"
       sodipodi:cx="38.754082"
       sodipodi:sides="3"
       id="path3735-5"
       sodipodi:type="star" />
    <path
       transform="matrix(-0.96062879,0,0,1.1828336,325.21546,47.62159)"
       style="fill:#cccccc;stroke-width:0.26458332"
       inkscape:transform-center-y="-18.441631"
       inkscape:transform-center-x="-0.2468665"
       d="m 93.277063,263.32402 -54.779967,-0.44511 -54.779968,-0.44512 27.775463,-47.21828 27.775463,-47.21829 27.004504,47.6634 z"
       inkscape:randomized="0"
       inkscape:rounded="0"
       inkscape:flatsided="false"
       sodipodi:arg2="1.5789216"
       sodipodi:arg1="0.53172407"
       sodipodi:r2="31.628273"
       sodipodi:r1="63.256546"
       sodipodi:cy="231.25168"
       sodipodi:cx="38.754082"
       sodipodi:sides="3"
       id="path3737-9"
       sodipodi:type="star" />
    <path
       sodipodi:type="star"
       id="path3688-11-9-1"
       sodipodi:sides="3"
       sodipodi:cx="38.754082"
       sodipodi:cy="231.25168"
       sodipodi:r1="63.256546"
       sodipodi:r2="31.628273"
       sodipodi:arg1="0.53172407"
       sodipodi:arg2="1.5789216"
       inkscape:flatsided="false"
       inkscape:rounded="0"
       inkscape:randomized="0"
       d="m 93.277063,263.32402 -54.779967,-0.44511 -54.779968,-0.44512 27.775463,-47.21828 27.775463,-47.21829 27.004504,47.6634 z"
       inkscape:transform-center-x="-0.2468665"
       inkscape:transform-center-y="-18.441631"
       style="fill:#cccccc;stroke-width:0.26458332"
       transform="matrix(-0.96062879,0,0,1.1828336,324.51389,50.22747)" />
    <path
       sodipodi:type="star"
       id="path3688-11-2-7"
       sodipodi:sides="3"
       sodipodi:cx="38.754082"
       sodipodi:cy="231.25168"
       sodipodi:r1="63.256546"
       sodipodi:r2="31.628273"
       sodipodi:arg1="0.53172407"
       sodipodi:arg2="1.5789216"
       inkscape:flatsided="false"
       inkscape:rounded="0"
       inkscape:randomized="0"
       d="m 93.277063,263.32402 -54.779967,-0.44511 -54.779968,-0.44512 27.775463,-47.21828 27.775463,-47.21829 27.004504,47.6634 z"
       inkscape:transform-center-x="-0.13870168"
       inkscape:transform-center-y="-12.259685"
       style="fill:#808080;stroke-width:0.26458332"
       transform="matrix(-0.539735,0,0,0.78632793,271.26903,122.88696)" />
    <path
       sodipodi:type="star"
       id="path3688-11-26-7"
       sodipodi:sides="3"
       sodipodi:cx="38.754082"
       sodipodi:cy="231.25168"
       sodipodi:r1="63.256546"
       sodipodi:r2="31.628273"
       sodipodi:arg1="0.53172407"
       sodipodi:arg2="1.5789216"
       inkscape:flatsided="false"
       inkscape:rounded="0"
       inkscape:randomized="0"
       d="m 93.277063,263.32402 -54.779967,-0.44511 -54.779968,-0.44512 27.775463,-47.21828 27.775463,-47.21829 27.004504,47.6634 z"
       inkscape:transform-center-x="-0.17682284"
       inkscape:transform-center-y="-13.434267"
       style="fill:#1a1a1a;stroke-width:0.26458332"
       transform="matrix(-0.68808285,0,0,0.86166402,160.7523,110.23068)" />
    <path
       sodipodi:type="star"
       id="path3688-11-7-6"
       sodipodi:sides="3"
       sodipodi:cx="38.754082"
       sodipodi:cy="231.25168"
       sodipodi:r1="63.256546"
       sodipodi:r2="31.628273"
       sodipodi:arg1="0.53172407"
       sodipodi:arg2="1.5789216"
       inkscape:flatsided="false"
       inkscape:rounded="0"
       inkscape:randomized="0"
       d="m 93.277063,263.32402 -54.779967,-0.44511 -54.779968,-0.44512 27.775463,-47.21828 27.775463,-47.21829 27.004504,47.6634 z"
       inkscape:transform-center-x="-0.19987729"
       inkscape:transform-center-y="-17.019789"
       style="fill:#b3b3b3;stroke-width:0.26458332"
       transform="matrix(-0.7777815,0,0,1.0916373,222.79176,62.14642)" />
    <path
       sodipodi:type="star"
       id="path3688-11-1-5"
       sodipodi:sides="3"
       sodipodi:cx="38.754082"
       sodipodi:cy="231.25168"
       sodipodi:r1="63.256546"
       sodipodi:r2="31.628273"
       sodipodi:arg1="0.53172407"
       sodipodi:arg2="1.5789216"
       inkscape:flatsided="false"
       inkscape:rounded="0"
       inkscape:randomized="0"
       d="m 93.277063,263.32402 -54.779967,-0.44511 -54.779968,-0.44512 27.775463,-47.21828 27.775463,-47.21829 27.004504,47.6634 z"
       inkscape:transform-center-x="-0.24598118"
       inkscape:transform-center-y="-11.456033"
       style="fill:#4d4d4d;stroke-width:0.26458332"
       transform="matrix(-0.95717884,0,0,0.73478221,127.64446,140.61792)" />
    <path
       sodipodi:type="star"
       id="path3688-11-8-3"
       sodipodi:sides="3"
       sodipodi:cx="38.754082"
       sodipodi:cy="231.25168"
       sodipodi:r1="63.256546"
       sodipodi:r2="31.628273"
       sodipodi:arg1="0.53172407"
       sodipodi:arg2="1.5789216"
       inkscape:flatsided="false"
       inkscape:rounded="0"
       inkscape:randomized="0"
       d="m 93.277063,263.32402 -54.779967,-0.44511 -54.779968,-0.44512 27.775463,-47.21828 27.775463,-47.21829 27.004504,47.6634 z"
       inkscape:transform-center-x="-0.081963059"
       inkscape:transform-center-y="-5.0268158"
       style="fill:#cccccc;stroke-width:0.26458332"
       transform="matrix(-0.31893828,0,0,0.32241628,174.32257,233.70676)" />
    <path
       sodipodi:type="star"
       id="path3688-11-4-0"
       sodipodi:sides="3"
       sodipodi:cx="38.754082"
       sodipodi:cy="231.25168"
       sodipodi:r1="63.256546"
       sodipodi:r2="31.628273"
       sodipodi:arg1="0.53172407"
       sodipodi:arg2="1.5789216"
       inkscape:flatsided="false"
       inkscape:rounded="0"
       inkscape:randomized="0"
       d="m 93.277063,263.32402 -54.779967,-0.44511 -54.779968,-0.44512 27.775463,-47.21828 27.775463,-47.21829 27.004504,47.6634 z"
       inkscape:transform-center-x="-0.12097659"
       inkscape:transform-center-y="-6.8814022"
       style="fill:#1a1a1a;stroke-width:0.26458332"
       transform="matrix(-0.47073603,0,0,0.44136797,238.00567,206.91133)" />
  </g>
</svg>
