<?xml version="1.0" encoding="UTF-8" standalone="no"?>
<!-- Created with Inkscape (http://www.inkscape.org/) -->

<svg
   xmlns:dc="http://purl.org/dc/elements/1.1/"
   xmlns:cc="http://creativecommons.org/ns#"
   xmlns:rdf="http://www.w3.org/1999/02/22-rdf-syntax-ns#"
   xmlns:svg="http://www.w3.org/2000/svg"
   xmlns="http://www.w3.org/2000/svg"
   xmlns:sodipodi="http://sodipodi.sourceforge.net/DTD/sodipodi-0.dtd"
   xmlns:inkscape="http://www.inkscape.org/namespaces/inkscape"
   width="300mm"
   height="200mm"
   viewBox="0 0 300 200"
   version="1.1"
   id="svg147"
   inkscape:version="0.92.1 r15371"
   sodipodi:docname="underground-bg.svg">
  <defs
     id="defs141" />
  <sodipodi:namedview
     id="base"
     pagecolor="#ffffff"
     bordercolor="#666666"
     borderopacity="1.0"
     inkscape:pageopacity="0.0"
     inkscape:pageshadow="2"
     inkscape:zoom="0.7"
     inkscape:cx="530.03386"
     inkscape:cy="541.39723"
     inkscape:document-units="mm"
     inkscape:current-layer="layer1"
     showgrid="false"
     inkscape:window-width="1920"
     inkscape:window-height="1027"
     inkscape:window-x="1272"
     inkscape:window-y="-8"
     inkscape:window-maximized="1"
     showguides="false" />
  <metadata
     id="metadata144">
    <rdf:RDF>
      <cc:Work
         rdf:about="">
        <dc:format>image/svg+xml</dc:format>
        <dc:type
           rdf:resource="http://purl.org/dc/dcmitype/StillImage" />
        <dc:title />
      </cc:Work>
    </rdf:RDF>
  </metadata>
  <g
     inkscape:label="Layer 1"
     inkscape:groupmode="layer"
     id="layer1"
     transform="translate(0,-97)">
    <path
       style="fill:#000000;stroke:#000000;stroke-width:0.26458332px;stroke-linecap:butt;stroke-linejoin:miter;stroke-opacity:1"
       d="M 0,296.62202 -0.37797618,97.050597 H 300.11309 V 297 Z"
       id="path153"
       inkscape:connector-curvature="0" />
    <path
       sodipodi:type="spiral"
       style="fill:none;fill-rule:evenodd;stroke:#000000;stroke-width:0.26458332"
       id="path19"
       sodipodi:cx="22.678572"
       sodipodi:cy="171.5119"
       sodipodi:expansion="1"
       sodipodi:revolution="3"
       sodipodi:radius="13.86199"
       sodipodi:argument="-18.398104"
       sodipodi:t0="0"
       d="m 22.678572,171.5119 c 0.625387,0.30322 -0.100187,0.99261 -0.503968,1.03944 -1.094219,0.1269 -1.70902,-1.11775 -1.574902,-2.04737 0.239905,-1.66287 2.075823,-2.48488 3.590772,-2.11037 2.223248,0.5496 3.277617,3.04468 2.645838,5.13417 -0.842063,2.78496 -4.017086,4.07719 -6.677577,3.18131 -3.347956,-1.12738 -4.880217,-4.99111 -3.716773,-8.22098 1.409086,-3.91181 5.96602,-5.68524 9.764381,-4.25224 4.476237,1.68873 6.491498,6.94149 4.787708,11.30778 -1.967092,5.04106 -7.917336,7.29859 -12.851185,5.32318 -5.606153,-2.2446 -8.10627,-8.89345 -5.858644,-14.39459 2.521497,-6.17146 9.869739,-8.91437 15.93799,-6.39411 6.736909,2.79796 9.722789,10.84618 6.929579,17.48139" />
    <path
       sodipodi:type="spiral"
       style="fill:#00ffff;fill-rule:evenodd;stroke:#000000;stroke-width:0.26458332"
       id="path23"
       sodipodi:cx="43.089287"
       sodipodi:cy="182.85118"
       sodipodi:expansion="1"
       sodipodi:revolution="3"
       sodipodi:radius="33.059414"
       sodipodi:argument="-18.309135"
       sodipodi:t0="0"
       d="m 43.089287,182.85118 c 1.421333,0.8528 -0.448324,2.33667 -1.417413,2.36235 -2.626171,0.0696 -3.822865,-3.01732 -3.307287,-5.19717 0.922248,-3.89925 5.45759,-5.46287 8.976939,-4.25223 5.164786,1.77667 7.140693,7.92707 5.19716,12.7567 -2.590424,6.43715 -10.406402,8.834 -16.536464,6.1421 -7.714058,-3.38748 -10.535164,-12.89031 -7.087034,-20.31623 4.176148,-8.99378 15.376771,-12.24087 24.09599,-8.03197 10.275297,4.96004 13.949416,17.86482 8.976907,27.87576 -5.740959,11.55802 -20.353924,15.65985 -31.655515,9.92184 -12.841586,-6.5199 -17.371631,-22.84378 -10.866781,-35.43528 7.29746,-14.12576 25.334171,-19.08437 39.215041,-11.81172 15.410396,8.07402 20.797826,27.82498 12.756654,42.99481"
       transform="matrix(0.13358725,0,0,0.13667002,14.195161,132.43827)" />
    <path
       sodipodi:type="spiral"
       style="fill:#00ffff;fill-rule:evenodd;stroke:#000000;stroke-width:0.26458332"
       id="path23-6"
       sodipodi:cx="43.089287"
       sodipodi:cy="182.85118"
       sodipodi:expansion="1"
       sodipodi:revolution="3"
       sodipodi:radius="33.059414"
       sodipodi:argument="-18.309135"
       sodipodi:t0="0"
       d="m 43.089287,182.85118 c 1.421333,0.8528 -0.448324,2.33667 -1.417413,2.36235 -2.626171,0.0696 -3.822865,-3.01732 -3.307287,-5.19717 0.922248,-3.89925 5.45759,-5.46287 8.976939,-4.25223 5.164786,1.77667 7.140693,7.92707 5.19716,12.7567 -2.590424,6.43715 -10.406402,8.834 -16.536464,6.1421 -7.714058,-3.38748 -10.535164,-12.89031 -7.087034,-20.31623 4.176148,-8.99378 15.376771,-12.24087 24.09599,-8.03197 10.275297,4.96004 13.949416,17.86482 8.976907,27.87576 -5.740959,11.55802 -20.353924,15.65985 -31.655515,9.92184 -12.841586,-6.5199 -17.371631,-22.84378 -10.866781,-35.43528 7.29746,-14.12576 25.334171,-19.08437 39.215041,-11.81172 15.410396,8.07402 20.797826,27.82498 12.756654,42.99481"
       transform="matrix(0.13358725,0,0,0.13667002,175.30614,140.4706)" />
    <path
       sodipodi:type="spiral"
       style="fill:#00ffff;fill-rule:evenodd;stroke:#000000;stroke-width:0.26458332"
       id="path23-7"
       sodipodi:cx="43.089287"
       sodipodi:cy="182.85118"
       sodipodi:expansion="1"
       sodipodi:revolution="3"
       sodipodi:radius="33.059414"
       sodipodi:argument="-18.309135"
       sodipodi:t0="0"
       d="m 43.089287,182.85118 c 1.421333,0.8528 -0.448324,2.33667 -1.417413,2.36235 -2.626171,0.0696 -3.822865,-3.01732 -3.307287,-5.19717 0.922248,-3.89925 5.45759,-5.46287 8.976939,-4.25223 5.164786,1.77667 7.140693,7.92707 5.19716,12.7567 -2.590424,6.43715 -10.406402,8.834 -16.536464,6.1421 -7.714058,-3.38748 -10.535164,-12.89031 -7.087034,-20.31623 4.176148,-8.99378 15.376771,-12.24087 24.09599,-8.03197 10.275297,4.96004 13.949416,17.86482 8.976907,27.87576 -5.740959,11.55802 -20.353924,15.65985 -31.655515,9.92184 -12.841586,-6.5199 -17.371631,-22.84378 -10.866781,-35.43528 7.29746,-14.12576 25.334171,-19.08437 39.215041,-11.81172 15.410396,8.07402 20.797826,27.82498 12.756654,42.99481"
       transform="matrix(0.13358725,0,0,0.13667002,80.056134,182.80393)" />
    <path
       sodipodi:type="spiral"
       style="fill:#00ffff;fill-rule:evenodd;stroke:#000000;stroke-width:0.26458332"
       id="path23-8"
       sodipodi:cx="43.089287"
       sodipodi:cy="182.85118"
       sodipodi:expansion="1"
       sodipodi:revolution="3"
       sodipodi:radius="33.059414"
       sodipodi:argument="-18.309135"
       sodipodi:t0="0"
       d="m 43.089287,182.85118 c 1.421333,0.8528 -0.448324,2.33667 -1.417413,2.36235 -2.626171,0.0696 -3.822865,-3.01732 -3.307287,-5.19717 0.922248,-3.89925 5.45759,-5.46287 8.976939,-4.25223 5.164786,1.77667 7.140693,7.92707 5.19716,12.7567 -2.590424,6.43715 -10.406402,8.834 -16.536464,6.1421 -7.714058,-3.38748 -10.535164,-12.89031 -7.087034,-20.31623 4.176148,-8.99378 15.376771,-12.24087 24.09599,-8.03197 10.275297,4.96004 13.949416,17.86482 8.976907,27.87576 -5.740959,11.55802 -20.353924,15.65985 -31.655515,9.92184 -12.841586,-6.5199 -17.371631,-22.84378 -10.866781,-35.43528 7.29746,-14.12576 25.334171,-19.08437 39.215041,-11.81172 15.410396,8.07402 20.797826,27.82498 12.756654,42.99481"
       transform="matrix(0.13358725,0,0,0.13667002,173.41625,237.2325)" />
    <path
       sodipodi:type="spiral"
       style="fill:#800080;fill-rule:evenodd;stroke:#000000;stroke-width:0.26458332"
       id="path23-1"
       sodipodi:cx="43.089287"
       sodipodi:cy="182.85118"
       sodipodi:expansion="1"
       sodipodi:revolution="3"
       sodipodi:radius="33.059414"
       sodipodi:argument="-18.309135"
       sodipodi:t0="0"
       d="m 43.089287,182.85118 c 1.421333,0.8528 -0.448324,2.33667 -1.417413,2.36235 -2.626171,0.0696 -3.822865,-3.01732 -3.307287,-5.19717 0.922248,-3.89925 5.45759,-5.46287 8.976939,-4.25223 5.164786,1.77667 7.140693,7.92707 5.19716,12.7567 -2.590424,6.43715 -10.406402,8.834 -16.536464,6.1421 -7.714058,-3.38748 -10.535164,-12.89031 -7.087034,-20.31623 4.176148,-8.99378 15.376771,-12.24087 24.09599,-8.03197 10.275297,4.96004 13.949416,17.86482 8.976907,27.87576 -5.740959,11.55802 -20.353924,15.65985 -31.655515,9.92184 -12.841586,-6.5199 -17.371631,-22.84378 -10.866781,-35.43528 7.29746,-14.12576 25.334171,-19.08437 39.215041,-11.81172 15.410396,8.07402 20.797826,27.82498 12.756654,42.99481"
       transform="matrix(0.13358725,0,0,0.13667002,255.05911,140.09262)" />
    <circle
       style="fill:#800080;stroke-width:0.26458332"
       id="path58"
       cx="35.529762"
       cy="217.24702"
       r="1.8898809" />
    <circle
       style="fill:#800080;stroke-width:0.26458332"
       id="path58-0"
       cx="96.383926"
       cy="176.80357"
       r="1.8898809" />
    <circle
       style="fill:#800080;stroke-width:0.26458332"
       id="path58-3"
       cx="83.154762"
       cy="262.98215"
       r="1.8898809" />
    <circle
       style="fill:#800080;stroke-width:0.26458332"
       id="path58-6"
       cx="183.31845"
       cy="215.35715"
       r="1.8898809" />
    <circle
       style="fill:#ffeeaa;stroke-width:0.26458332"
       id="path58-5"
       cx="236.99107"
       cy="259.20239"
       r="1.8898809" />
    <path
       sodipodi:type="star"
       style="fill:#ffeeaa;stroke-width:0.26458332"
       id="path93"
       sodipodi:sides="5"
       sodipodi:cx="29.860119"
       sodipodi:cy="262.2262"
       sodipodi:r1="3.5658202"
       sodipodi:r2="1.7829101"
       sodipodi:arg1="1.012197"
       sodipodi:arg2="1.6405155"
       inkscape:flatsided="false"
       inkscape:rounded="0"
       inkscape:randomized="0"
       d="m 31.75,265.25001 -2.014083,-1.24523 -2.167607,0.95321 0.561899,-2.30031 -1.576387,-1.76695 2.361356,-0.17644 1.193346,-2.04525 0.897499,2.19126 2.313915,0.50292 -1.806671,1.53071 z"
       inkscape:transform-center-x="-0.076760939"
       inkscape:transform-center-y="-0.26667604" />
    <path
       sodipodi:type="star"
       style="fill:#ffeeaa;stroke-width:0.26458332"
       id="path95"
       sodipodi:sides="5"
       sodipodi:cx="51.404758"
       sodipodi:cy="179.07143"
       sodipodi:r1="5.0851498"
       sodipodi:r2="2.5425749"
       sodipodi:arg1="-0.83798123"
       sodipodi:arg2="-0.20966269"
       inkscape:flatsided="false"
       inkscape:rounded="0"
       inkscape:randomized="0"
       d="m 54.806544,175.29166 -0.91489,3.25058 2.159081,2.59647 -3.374198,0.13437 -1.802193,2.85576 -1.170478,-3.16753 -3.272898,-0.83151 2.650802,-2.09201 -0.220569,-3.36966 2.808765,1.87459 z"
       inkscape:transform-center-x="0.16390763"
       inkscape:transform-center-y="0.32705394" />
    <path
       sodipodi:type="star"
       style="fill:#ffeeaa;stroke-width:0.26458332"
       id="path97"
       sodipodi:sides="5"
       sodipodi:cx="251.35416"
       sodipodi:cy="223.29465"
       sodipodi:r1="3.5658202"
       sodipodi:r2="1.7829101"
       sodipodi:arg1="1.012197"
       sodipodi:arg2="1.6405155"
       inkscape:flatsided="false"
       inkscape:rounded="0"
       inkscape:randomized="0"
       d="m 253.24404,226.31846 -2.01409,-1.24523 -2.1676,0.95321 0.5619,-2.30031 -1.57639,-1.76695 2.36136,-0.17644 1.19334,-2.04525 0.8975,2.19126 2.31392,0.50292 -1.80668,1.53071 z"
       inkscape:transform-center-x="-0.076758148"
       inkscape:transform-center-y="-0.26667555" />
    <path
       sodipodi:type="star"
       id="path3688-11"
       sodipodi:sides="3"
       sodipodi:cx="38.754082"
       sodipodi:cy="231.25168"
       sodipodi:r1="63.256546"
       sodipodi:r2="31.628273"
       sodipodi:arg1="0.53172407"
       sodipodi:arg2="1.5789216"
       inkscape:flatsided="false"
       inkscape:rounded="0"
       inkscape:randomized="0"
       d="m 93.277063,263.32402 -54.779967,-0.44511 -54.779968,-0.44512 27.775463,-47.21828 27.775463,-47.21829 27.004504,47.6634 z"
       inkscape:transform-center-x="-0.11210653"
       inkscape:transform-center-y="8.4887043"
       style="fill:#b3b3b3;stroke-width:0.26458332"
       transform="matrix(-0.43623652,0,0,-0.54445948,25.545276,228.23043)" />
    <path
       sodipodi:type="star"
       id="path3688-11-6"
       sodipodi:sides="3"
       sodipodi:cx="38.754082"
       sodipodi:cy="231.25168"
       sodipodi:r1="63.256546"
       sodipodi:r2="31.628273"
       sodipodi:arg1="0.53172407"
       sodipodi:arg2="1.5789216"
       inkscape:flatsided="false"
       inkscape:rounded="0"
       inkscape:randomized="0"
       d="m 93.277063,263.32402 -54.779967,-0.44511 -54.779968,-0.44512 27.775463,-47.21828 27.775463,-47.21829 27.004504,47.6634 z"
       inkscape:transform-center-x="-0.17151227"
       inkscape:transform-center-y="15.597936"
       style="fill:#666666;stroke-width:0.26458332"
       transform="matrix(-0.66738313,0,0,-1.000441,61.215335,329.51026)" />
    <path
       sodipodi:type="star"
       id="path3688-11-9"
       sodipodi:sides="3"
       sodipodi:cx="38.754082"
       sodipodi:cy="231.25168"
       sodipodi:r1="63.256546"
       sodipodi:r2="31.628273"
       sodipodi:arg1="0.53172407"
       sodipodi:arg2="1.5789216"
       inkscape:flatsided="false"
       inkscape:rounded="0"
       inkscape:randomized="0"
       d="m 93.277063,263.32402 -54.779967,-0.44511 -54.779968,-0.44512 27.775463,-47.21828 27.775463,-47.21829 27.004504,47.6634 z"
       inkscape:transform-center-x="-0.2468665"
       inkscape:transform-center-y="18.441631"
       style="fill:#cccccc;stroke-width:0.26458332"
       transform="matrix(-0.96062879,0,0,-1.1828336,318.94197,355.14821)" />
    <path
       sodipodi:type="star"
       id="path3688-11-2"
       sodipodi:sides="3"
       sodipodi:cx="38.754082"
       sodipodi:cy="231.25168"
       sodipodi:r1="63.256546"
       sodipodi:r2="31.628273"
       sodipodi:arg1="0.53172407"
       sodipodi:arg2="1.5789216"
       inkscape:flatsided="false"
       inkscape:rounded="0"
       inkscape:randomized="0"
       d="m 93.277063,263.32402 -54.779967,-0.44511 -54.779968,-0.44512 27.775463,-47.21828 27.775463,-47.21829 27.004504,47.6634 z"
       inkscape:transform-center-x="-0.13870168"
       inkscape:transform-center-y="12.259685"
       style="fill:#808080;stroke-width:0.26458332"
       transform="matrix(-0.53973501,0,0,-0.78632794,265.69712,282.48873)" />
    <path
       sodipodi:type="star"
       id="path3688-11-26"
       sodipodi:sides="3"
       sodipodi:cx="38.754082"
       sodipodi:cy="231.25168"
       sodipodi:r1="63.256546"
       sodipodi:r2="31.628273"
       sodipodi:arg1="0.53172407"
       sodipodi:arg2="1.5789216"
       inkscape:flatsided="false"
       inkscape:rounded="0"
       inkscape:randomized="0"
       d="m 93.277063,263.32402 -54.779967,-0.44511 -54.779968,-0.44512 27.775463,-47.21828 27.775463,-47.21829 27.004504,47.6634 z"
       inkscape:transform-center-x="-0.17682284"
       inkscape:transform-center-y="13.434267"
       style="fill:#1a1a1a;stroke-width:0.26458332"
       transform="matrix(-0.68808284,0,0,-0.86166402,155.18039,295.14501)" />
    <path
       sodipodi:type="star"
       id="path3688-11-7"
       sodipodi:sides="3"
       sodipodi:cx="38.754082"
       sodipodi:cy="231.25168"
       sodipodi:r1="63.256546"
       sodipodi:r2="31.628273"
       sodipodi:arg1="0.53172407"
       sodipodi:arg2="1.5789216"
       inkscape:flatsided="false"
       inkscape:rounded="0"
       inkscape:randomized="0"
       d="m 93.277063,263.32402 -54.779967,-0.44511 -54.779968,-0.44512 27.775463,-47.21828 27.775463,-47.21829 27.004504,47.6634 z"
       inkscape:transform-center-x="-0.19987729"
       inkscape:transform-center-y="17.019789"
       style="fill:#b3b3b3;stroke-width:0.26458332"
       transform="matrix(-0.77778149,0,0,-1.0916373,217.21985,343.22927)" />
    <path
       sodipodi:type="star"
       id="path3688-11-1"
       sodipodi:sides="3"
       sodipodi:cx="38.754082"
       sodipodi:cy="231.25168"
       sodipodi:r1="63.256546"
       sodipodi:r2="31.628273"
       sodipodi:arg1="0.53172407"
       sodipodi:arg2="1.5789216"
       inkscape:flatsided="false"
       inkscape:rounded="0"
       inkscape:randomized="0"
       d="m 93.277063,263.32402 -54.779967,-0.44511 -54.779968,-0.44512 27.775463,-47.21828 27.775463,-47.21829 27.004504,47.6634 z"
       inkscape:transform-center-x="-0.24598118"
       inkscape:transform-center-y="11.456033"
       style="fill:#4d4d4d;stroke-width:0.26458332"
       transform="matrix(-0.95717884,0,0,-0.7347822,122.07255,264.75777)" />
    <path
       sodipodi:type="star"
       id="path3688-11-8"
       sodipodi:sides="3"
       sodipodi:cx="38.754082"
       sodipodi:cy="231.25168"
       sodipodi:r1="63.256546"
       sodipodi:r2="31.628273"
       sodipodi:arg1="0.53172407"
       sodipodi:arg2="1.5789216"
       inkscape:flatsided="false"
       inkscape:rounded="0"
       inkscape:randomized="0"
       d="m 93.277063,263.32402 -54.779967,-0.44511 -54.779968,-0.44512 27.775463,-47.21828 27.775463,-47.21829 27.004504,47.6634 z"
       inkscape:transform-center-x="-0.081963059"
       inkscape:transform-center-y="5.0268124"
       style="fill:#cccccc;stroke-width:0.26458332"
       transform="matrix(-0.31893827,0,0,-0.32241627,168.75066,171.66893)" />
    <path
       sodipodi:type="star"
       id="path3688-11-4"
       sodipodi:sides="3"
       sodipodi:cx="38.754082"
       sodipodi:cy="231.25168"
       sodipodi:r1="63.256546"
       sodipodi:r2="31.628273"
       sodipodi:arg1="0.53172407"
       sodipodi:arg2="1.5789216"
       inkscape:flatsided="false"
       inkscape:rounded="0"
       inkscape:randomized="0"
       d="m 93.277063,263.32402 -54.779967,-0.44511 -54.779968,-0.44512 27.775463,-47.21828 27.775463,-47.21829 27.004504,47.6634 z"
       inkscape:transform-center-x="-0.12097659"
       inkscape:transform-center-y="6.8813988"
       style="fill:#1a1a1a;stroke-width:0.26458332"
       transform="matrix(-0.47073603,0,0,-0.44136798,232.43375,198.46436)" />
    <rect
       style="fill:#b3b3b3;stroke:none;stroke-width:0.23752201"
       id="rect168"
       width="275.54465"
       height="40.065472"
       x="-18.142857"
       y="58.119053"
       ry="5.6843419e-014" />
    <rect
       style="fill:#999999;stroke:none;stroke-width:0.26458332"
       id="rect170"
       width="80.508919"
       height="40.443443"
       x="257.40179"
       y="58.119053"
       ry="5.6843348e-014" />
  </g>
</svg>
